<svg width="24" height="25" viewBox="0 0 24 25" fill="none" xmlns="http://www.w3.org/2000/svg">
<path d="M18.71 19.756C17.88 20.996 17 22.206 15.66 22.226C14.32 22.256 13.89 21.436 12.37 21.436C10.84 21.436 10.37 22.206 9.09997 22.256C7.78997 22.306 6.79997 20.936 5.95997 19.726C4.24997 17.256 2.93997 12.706 4.69997 9.64604C5.56997 8.12604 7.12997 7.16604 8.81997 7.13604C10.1 7.11604 11.32 8.00604 12.11 8.00604C12.89 8.00604 14.37 6.93604 15.92 7.09604C16.57 7.12604 18.39 7.35604 19.56 9.07604C19.47 9.13604 17.39 10.356 17.41 12.886C17.44 15.906 20.06 16.916 20.09 16.926C20.06 16.996 19.67 18.366 18.71 19.756ZM13 3.75604C13.73 2.92604 14.94 2.29604 15.94 2.25604C16.07 3.42604 15.6 4.60604 14.9 5.44604C14.21 6.29604 13.07 6.95604 11.95 6.86604C11.8 5.71604 12.36 4.51604 13 3.75604Z" fill="black"/>
</svg>
