<svg width="16" height="17" viewBox="0 0 16 17" fill="none" xmlns="http://www.w3.org/2000/svg">
<path d="M7.99998 9.29299L4.24519 13.0478C4.13791 13.1551 4.01275 13.2087 3.86971 13.2087C3.72667 13.2087 3.60151 13.1551 3.49423 13.0478C3.38695 12.9405 3.33331 12.8153 3.33331 12.6723C3.33331 12.5293 3.38695 12.4041 3.49423 12.2968L7.24902 8.54203L3.49423 4.78724C3.38695 4.67996 3.33331 4.5548 3.33331 4.41176C3.33331 4.26873 3.38695 4.14357 3.49423 4.03629C3.60151 3.92901 3.72667 3.87537 3.86971 3.87537C4.01275 3.87537 4.13791 3.92901 4.24519 4.03629L7.99998 7.79108L11.7548 4.03629C11.862 3.92901 11.9872 3.87537 12.1302 3.87537C12.2733 3.87537 12.3984 3.92901 12.5057 4.03629C12.613 4.14357 12.6666 4.26873 12.6666 4.41176C12.6666 4.5548 12.613 4.67996 12.5057 4.78724L8.75094 8.54203L12.5057 12.2968C12.613 12.4041 12.6666 12.5293 12.6666 12.6723C12.6666 12.8153 12.613 12.9405 12.5057 13.0478C12.3984 13.1551 12.2733 13.2087 12.1302 13.2087C11.9872 13.2087 11.862 13.1551 11.7548 13.0478L7.99998 9.29299Z" fill="#71717A"/>
</svg>
