<svg width="25" height="25" viewBox="0 0 25 25" fill="none" xmlns="http://www.w3.org/2000/svg">
<rect x="0.461304" y="0.782227" width="24" height="24" rx="12" fill="white"/>
<path d="M12.4613 6.14209C8.79468 6.14209 5.79468 9.13542 5.79468 12.8221C5.79468 16.1554 8.23468 18.9221 11.4213 19.4221V14.7554H9.72801V12.8221H11.4213V11.3488C11.4213 9.67542 12.4147 8.75542 13.9413 8.75542C14.668 8.75542 15.428 8.88209 15.428 8.88209V10.5288H14.588C13.7613 10.5288 13.5013 11.0421 13.5013 11.5688V12.8221H15.3547L15.0547 14.7554H13.5013V19.4221C15.0723 19.174 16.5028 18.3724 17.5346 17.1621C18.5664 15.9518 19.1316 14.4125 19.128 12.8221C19.128 9.13542 16.128 6.14209 12.4613 6.14209Z" fill="#0F0F0F"/>
</svg>
