<svg width="24" height="25" viewBox="0 0 24 25" fill="none" xmlns="http://www.w3.org/2000/svg">
<path d="M12 2.50604C14.4741 2.50604 16.7249 3.43687 18.4443 4.95721L15.9658 7.43573C14.8873 6.54608 13.5085 6.00604 12 6.00604C8.54843 6.00604 5.75 8.80447 5.75 12.256C5.75 15.7076 8.54843 18.506 12 18.506C14.7212 18.506 17.0282 16.7637 17.8867 14.3391L18.0049 14.006H12.25V10.506H20.75V10.5471H21.5957C21.6943 11.1026 21.75 11.6731 21.75 12.256C21.75 17.6405 17.3844 22.006 12 22.006C6.61557 22.006 2.25 17.6405 2.25 12.256C2.25 6.87161 6.61557 2.50604 12 2.50604Z" fill="#FFC107" stroke="#318AF7" stroke-width="0.5"/>
<path d="M11.9996 2.50604C14.474 2.50604 16.7255 3.43668 18.4449 4.95721L15.9664 7.43475C14.8879 6.54515 13.5081 6.00604 11.9996 6.00604C9.488 6.00617 7.3265 7.48853 6.33362 9.62421L3.47717 7.52948C5.14155 4.53453 8.33206 2.50616 11.9996 2.50604Z" fill="#FF3D00" stroke="#318AF7" stroke-width="0.5"/>
<path d="M12 22.2561C14.583 22.2561 16.93 21.2675 18.7045 19.66L15.6095 17.041C14.572 17.8306 13.3038 18.2575 12 18.2561C9.39903 18.2561 7.19053 16.5976 6.35853 14.2831L3.09753 16.7955C4.75253 20.034 8.11353 22.2561 12 22.2561Z" fill="#4CAF50"/>
<path d="M21.8055 10.2975H21V10.256H12V14.256H17.6515C17.2571 15.3642 16.5467 16.3326 15.608 17.0415L15.6095 17.0405L18.7045 19.6595C18.4855 19.8585 22 17.256 22 12.256C22 11.5855 21.931 10.931 21.8055 10.2975Z" fill="#1976D2"/>
</svg>
