<svg width="25" height="25" viewBox="0 0 25 25" fill="none" xmlns="http://www.w3.org/2000/svg">
<rect x="0.461304" y="0.782227" width="24" height="24" rx="12" fill="white"/>
<path d="M13.1467 6.11572C13.8967 6.11772 14.2774 6.12172 14.606 6.13106L14.7354 6.13572C14.8847 6.14106 15.032 6.14772 15.21 6.15572C15.9194 6.18906 16.4034 6.30106 16.828 6.46572C17.268 6.63506 17.6387 6.86439 18.0094 7.23439C18.3485 7.56754 18.6108 7.9707 18.778 8.41572C18.9427 8.84039 19.0547 9.32439 19.088 10.0344C19.096 10.2117 19.1027 10.3591 19.108 10.5091L19.112 10.6384C19.122 10.9664 19.126 11.3471 19.1274 12.0971L19.128 12.5944V13.4677C19.1296 13.954 19.1245 14.4403 19.1127 14.9264L19.1087 15.0557C19.1034 15.2057 19.0967 15.3531 19.0887 15.5304C19.0554 16.2404 18.942 16.7237 18.778 17.1491C18.6108 17.5941 18.3485 17.9972 18.0094 18.3304C17.6762 18.6695 17.273 18.9318 16.828 19.0991C16.4034 19.2637 15.9194 19.3757 15.21 19.4091L14.7354 19.4291L14.606 19.4331C14.2774 19.4424 13.8967 19.4471 13.1467 19.4484L12.6494 19.4491H11.7767C11.2902 19.4508 10.8037 19.4457 10.3174 19.4337L10.188 19.4297C10.0298 19.4237 9.87154 19.4168 9.71336 19.4091C9.00402 19.3757 8.52002 19.2637 8.09469 19.0991C7.64991 18.9318 7.24699 18.6694 6.91402 18.3304C6.57465 17.9973 6.3121 17.5941 6.14469 17.1491C5.98002 16.7244 5.86802 16.2404 5.83469 15.5304L5.81469 15.0557L5.81136 14.9264C5.79907 14.4403 5.79351 13.954 5.79469 13.4677V12.0971C5.79285 11.6108 5.79773 11.1245 5.80936 10.6384L5.81402 10.5091C5.81936 10.3591 5.82602 10.2117 5.83402 10.0344C5.86736 9.32439 5.97936 8.84106 6.14402 8.41572C6.31182 7.97052 6.57484 7.56735 6.91469 7.23439C7.24746 6.89542 7.65015 6.63311 8.09469 6.46572C8.52002 6.30106 9.00336 6.18906 9.71336 6.15572C9.89069 6.14772 10.0387 6.14106 10.188 6.13572L10.3174 6.13172C10.8035 6.11988 11.2898 6.11477 11.776 6.11639L13.1467 6.11572ZM12.4614 9.44906C11.5773 9.44906 10.7295 9.80025 10.1043 10.4254C9.47921 11.0505 9.12802 11.8983 9.12802 12.7824C9.12802 13.6664 9.47921 14.5143 10.1043 15.1394C10.7295 15.7645 11.5773 16.1157 12.4614 16.1157C13.3454 16.1157 14.1933 15.7645 14.8184 15.1394C15.4435 14.5143 15.7947 13.6664 15.7947 12.7824C15.7947 11.8983 15.4435 11.0505 14.8184 10.4254C14.1933 9.80025 13.3454 9.44906 12.4614 9.44906ZM12.4614 10.7824C12.724 10.7823 12.9841 10.834 13.2267 10.9345C13.4694 11.035 13.6899 11.1823 13.8757 11.3679C14.0614 11.5536 14.2088 11.7741 14.3093 12.0167C14.4099 12.2593 14.4616 12.5194 14.4617 12.7821C14.4617 13.0447 14.41 13.3048 14.3096 13.5474C14.2091 13.7901 14.0618 14.0106 13.8761 14.1964C13.6905 14.3821 13.47 14.5295 13.2274 14.63C12.9847 14.7306 12.7247 14.7823 12.462 14.7824C11.9316 14.7824 11.4229 14.5717 11.0478 14.1966C10.6727 13.8215 10.462 13.3128 10.462 12.7824C10.462 12.252 10.6727 11.7432 11.0478 11.3682C11.4229 10.9931 11.9316 10.7824 12.462 10.7824M15.962 8.44906C15.741 8.44906 15.529 8.53685 15.3728 8.69313C15.2165 8.84941 15.1287 9.06138 15.1287 9.28239C15.1287 9.5034 15.2165 9.71536 15.3728 9.87164C15.529 10.0279 15.741 10.1157 15.962 10.1157C16.183 10.1157 16.395 10.0279 16.5513 9.87164C16.7076 9.71536 16.7954 9.5034 16.7954 9.28239C16.7954 9.06138 16.7076 8.84941 16.5513 8.69313C16.395 8.53685 16.183 8.44906 15.962 8.44906Z" fill="#0F0F0F"/>
</svg>
