<svg width="25" height="24" viewBox="0 0 25 24" fill="none" xmlns="http://www.w3.org/2000/svg">
<path d="M10.9996 9.00224C11.1758 8.50136 11.5236 8.079 11.9814 7.80998C12.4391 7.54095 12.9773 7.4426 13.5006 7.53237C14.024 7.62213 14.4986 7.89421 14.8406 8.30041C15.1825 8.70661 15.3697 9.22072 15.3689 9.75168C15.3689 11.2506 13.1205 12 13.1205 12M13.1495 15H13.1595M12.9996 20C17.694 20 21.4996 16.1944 21.4996 11.5C21.4996 6.80558 17.694 3 12.9996 3C8.3052 3 4.49962 6.80558 4.49962 11.5C4.49962 12.45 4.65547 13.3636 4.943 14.2166C5.05119 14.5376 5.10529 14.6981 5.11505 14.8214C5.12469 14.9432 5.1174 15.0286 5.08728 15.1469C5.05677 15.2668 4.98942 15.3915 4.85472 15.6408L3.21906 18.6684C2.98575 19.1002 2.86909 19.3161 2.8952 19.4828C2.91794 19.6279 3.00337 19.7557 3.1288 19.8322C3.2728 19.9201 3.51692 19.8948 4.00517 19.8444L9.12619 19.315C9.28127 19.299 9.35881 19.291 9.42949 19.2937C9.499 19.2963 9.54807 19.3029 9.61586 19.3185C9.68478 19.3344 9.77145 19.3678 9.94478 19.4345C10.8928 19.7998 11.9228 20 12.9996 20Z" stroke="black" stroke-width="2" stroke-linecap="round" stroke-linejoin="round"/>
</svg>
