<svg width="17" height="17" viewBox="0 0 17 17" fill="none" xmlns="http://www.w3.org/2000/svg">
<path d="M2.5 9.54549C3.05333 9.97349 3.88467 10.2235 4.83333 10.2122C5.782 10.2235 6.61333 9.97349 7.16667 9.54549C7.72 9.11749 8.55133 8.86749 9.5 8.87882C10.4487 8.86749 11.28 9.11749 11.8333 9.54549M5.83333 2.21216C5.62234 2.36361 5.45138 2.56414 5.33523 2.79644C5.21908 3.02874 5.16123 3.28583 5.16667 3.54549C5.16123 3.80516 5.21908 4.06224 5.33523 4.29454C5.45138 4.52684 5.62234 4.72738 5.83333 4.87882M8.5 2.21216C8.289 2.36361 8.11805 2.56414 8.0019 2.79644C7.88575 3.02874 7.82789 3.28583 7.83333 3.54549C7.82789 3.80516 7.88575 4.06224 8.0019 4.29454C8.11805 4.52684 8.289 4.72738 8.5 4.87882" stroke="#71717A" stroke-width="1.3" stroke-linecap="round" stroke-linejoin="round"/>
<path d="M2.5 6.87891H11.8333V10.2122C11.8333 11.2731 11.4119 12.2905 10.6618 13.0407C9.91161 13.7908 8.8942 14.2122 7.83333 14.2122H6.5C5.43913 14.2122 4.42172 13.7908 3.67157 13.0407C2.92143 12.2905 2.5 11.2731 2.5 10.2122V6.87891Z" stroke="#71717A" stroke-width="1.3" stroke-linecap="round" stroke-linejoin="round"/>
<path d="M11.6639 11.3628C11.9617 11.4995 12.2884 11.5609 12.6155 11.5417C12.9425 11.5226 13.2598 11.4233 13.5395 11.2528C13.8193 11.0822 14.0528 10.8456 14.2196 10.5636C14.3864 10.2817 14.4814 9.96307 14.4963 9.6358C14.5111 9.30853 14.4454 8.98263 14.3048 8.68674C14.1641 8.39084 13.953 8.13402 13.6899 7.93884C13.4268 7.74367 13.1197 7.61612 12.7958 7.5674C12.4718 7.51869 12.1408 7.5503 11.8319 7.65946" stroke="#71717A" stroke-width="1.3" stroke-linecap="round" stroke-linejoin="round"/>
</svg>
