<svg width="17" height="17" viewBox="0 0 17 17" fill="none" xmlns="http://www.w3.org/2000/svg">
<path d="M9.83337 4.87891H11.3915C11.5546 4.87891 11.6361 4.87891 11.7129 4.89733C11.7809 4.91366 11.8459 4.94059 11.9056 4.97715C11.9728 5.01837 12.0305 5.07602 12.1458 5.19133L14.8543 7.89982C14.9696 8.01512 15.0272 8.07277 15.0685 8.14005C15.105 8.1997 15.132 8.26473 15.1483 8.33275C15.1667 8.40948 15.1667 8.49101 15.1667 8.65407V10.5456C15.1667 10.8562 15.1667 11.0115 15.116 11.134C15.0483 11.2974 14.9185 11.4272 14.7552 11.4948C14.6326 11.5456 14.4773 11.5456 14.1667 11.5456M10.8334 11.5456H9.83337M9.83337 11.5456V5.01224C9.83337 4.2655 9.83337 3.89213 9.68805 3.60692C9.56022 3.35604 9.35624 3.15206 9.10536 3.02423C8.82015 2.87891 8.44678 2.87891 7.70004 2.87891H3.96671C3.21997 2.87891 2.8466 2.87891 2.56139 3.02423C2.3105 3.15206 2.10653 3.35604 1.9787 3.60692C1.83337 3.89213 1.83337 4.2655 1.83337 5.01224V10.2122C1.83337 10.9486 2.43033 11.5456 3.16671 11.5456M9.83337 11.5456H7.16671M7.16671 11.5456C7.16671 12.6501 6.27128 13.5456 5.16671 13.5456C4.06214 13.5456 3.16671 12.6501 3.16671 11.5456M7.16671 11.5456C7.16671 10.441 6.27128 9.54557 5.16671 9.54557C4.06214 9.54557 3.16671 10.441 3.16671 11.5456M14.1667 11.8789C14.1667 12.7994 13.4205 13.5456 12.5 13.5456C11.5796 13.5456 10.8334 12.7994 10.8334 11.8789C10.8334 10.9584 11.5796 10.2122 12.5 10.2122C13.4205 10.2122 14.1667 10.9584 14.1667 11.8789Z" stroke="#71717A" stroke-width="1.3" stroke-linecap="round" stroke-linejoin="round"/>
</svg>
