<svg width="17" height="17" viewBox="0 0 17 17" fill="none" xmlns="http://www.w3.org/2000/svg">
<path d="M1.83337 4.21208C2.23337 4.54541 2.63337 4.87874 3.50004 4.87874C5.16671 4.87874 5.16671 3.54541 6.83337 3.54541C7.70004 3.54541 8.10004 3.87874 8.50004 4.21208C8.90004 4.54541 9.30004 4.87874 10.1667 4.87874C11.8334 4.87874 11.8334 3.54541 13.5 3.54541C14.3667 3.54541 14.7667 3.87874 15.1667 4.21208M1.83337 12.2121C2.23337 12.5454 2.63337 12.8787 3.50004 12.8787C5.16671 12.8787 5.16671 11.5454 6.83337 11.5454C7.70004 11.5454 8.10004 11.8787 8.50004 12.2121C8.90004 12.5454 9.30004 12.8787 10.1667 12.8787C11.8334 12.8787 11.8334 11.5454 13.5 11.5454C14.3667 11.5454 14.7667 11.8787 15.1667 12.2121M1.83337 8.21208C2.23337 8.54541 2.63337 8.87874 3.50004 8.87874C5.16671 8.87874 5.16671 7.54541 6.83337 7.54541C7.70004 7.54541 8.10004 7.87874 8.50004 8.21208C8.90004 8.54541 9.30004 8.87874 10.1667 8.87874C11.8334 8.87874 11.8334 7.54541 13.5 7.54541C14.3667 7.54541 14.7667 7.87874 15.1667 8.21208" stroke="#71717A" stroke-width="1.3" stroke-linecap="round" stroke-linejoin="round"/>
</svg>
