<svg width="143" height="41" viewBox="0 0 143 41" fill="none" xmlns="http://www.w3.org/2000/svg">
<path d="M29.1513 21.1039C26.9295 20.3956 24.7518 19.5938 22.5151 19.0095C16.5624 17.4552 10.5688 17.2754 4.56774 18.7769C3.9335 18.9364 3.79833 19.9004 4.33439 20.275C7.43674 22.4291 10.5503 24.5701 13.6679 26.7024C14.2261 27.0846 14.4029 27.5837 14.4764 28.2486C14.8325 31.4175 15.2521 34.5788 15.6611 37.7405C15.6955 38.0111 15.8032 38.2813 15.9229 38.5308C16.1208 38.9467 16.4085 38.949 16.7107 38.6286C16.8251 38.5071 16.9218 38.3671 17.0252 38.2354C19.6728 34.8687 22.3182 31.5011 24.9651 28.1329C25.1612 27.8839 25.1029 27.5176 24.8585 27.3159C22.4858 25.3582 19.6471 24.0716 16.7404 22.9297C16.2591 22.7407 16.4534 22.0308 16.9595 22.1367C23.3332 23.4679 29.173 26.1546 34.8437 29.2592C35.7039 29.7299 36.5585 30.2099 37.4312 30.6562C37.7632 30.8256 38.2805 30.3966 38.1127 30.0637C37.2983 28.439 36.5292 26.7867 35.6037 25.2249C31.6481 18.5465 26.6864 12.75 20.2852 8.29429C18.6418 7.15022 16.8252 6.2392 15.0236 5.34946C13.947 4.8176 13.5402 5.2789 13.6157 6.31272C13.8193 9.10078 14.1402 11.8811 14.47 14.6563C14.4935 14.8591 14.9661 15.1029 15.2628 15.1628C20.0758 16.1263 24.5308 17.9348 28.5913 20.7025C28.7753 20.8271 28.9538 20.9608 29.1472 21.1015C29.1485 21.1024 29.1499 21.1032 29.1513 21.1039Z" fill="#318AF7"/>
<path d="M50.4713 29.4383C49.0504 29.4383 47.8134 29.1792 46.7602 28.661C45.7238 28.1428 44.9047 27.424 44.3029 26.5046C43.7011 25.5852 43.3501 24.5153 43.2498 23.295L46.0331 23.1195C46.1501 23.9553 46.3925 24.6658 46.7602 25.2508C47.128 25.8192 47.6211 26.2538 48.2396 26.5547C48.8749 26.8389 49.6355 26.981 50.5214 26.981C51.2904 26.981 51.9423 26.889 52.4773 26.7052C53.0289 26.5046 53.4468 26.212 53.731 25.8276C54.0152 25.4431 54.1573 24.975 54.1573 24.4234C54.1573 23.9219 54.0319 23.4789 53.7811 23.0944C53.5471 22.6932 53.0874 22.3338 52.402 22.0162C51.7334 21.6819 50.7471 21.3559 49.4432 21.0383C48.0223 20.6872 46.8856 20.3028 46.0331 19.8849C45.1805 19.4669 44.562 18.9487 44.1775 18.3302C43.8098 17.695 43.6259 16.9177 43.6259 15.9983C43.6259 14.9786 43.8683 14.0842 44.3531 13.3153C44.8546 12.5296 45.565 11.9195 46.4844 11.4848C47.4038 11.0502 48.5071 10.8329 49.7943 10.8329C51.1483 10.8329 52.3017 11.0836 53.2546 11.5851C54.2241 12.0866 54.9847 12.772 55.5364 13.6413C56.1047 14.5105 56.4558 15.5051 56.5895 16.6251L53.8062 16.7756C53.7226 16.0902 53.5137 15.4884 53.1793 14.9702C52.845 14.4353 52.3937 14.0257 51.8253 13.7416C51.257 13.4407 50.5632 13.2902 49.7441 13.2902C48.7077 13.2902 47.8886 13.5326 47.2868 14.0174C46.7017 14.4854 46.4092 15.1123 46.4092 15.898C46.4092 16.3995 46.5262 16.8257 46.7602 17.1768C47.011 17.5111 47.4456 17.8037 48.0641 18.0544C48.6993 18.3051 49.5937 18.5726 50.7471 18.8568C52.285 19.2078 53.5053 19.6425 54.408 20.1607C55.3274 20.6622 55.9793 21.2556 56.3638 21.941C56.7483 22.6264 56.9405 23.4037 56.9405 24.2729C56.9405 25.3261 56.6647 26.2455 56.1131 27.0311C55.5782 27.8001 54.8259 28.3935 53.8564 28.8114C52.8868 29.2293 51.7584 29.4383 50.4713 29.4383ZM64.7102 29.0371C63.4397 29.0371 62.5036 28.7446 61.9018 28.1595C61.3 27.5744 60.9991 26.6634 60.9991 25.4264V12.563H63.657V25.2258C63.657 25.8443 63.7908 26.2705 64.0582 26.5046C64.3257 26.7386 64.7352 26.8556 65.2869 26.8556H67.1926V29.0371H64.7102ZM58.9681 17.8789V15.6974H67.1926V17.8789H58.9681ZM73.3952 29.338C72.0077 29.338 70.8961 29.0204 70.0603 28.3852C69.2412 27.7499 68.8316 26.8556 68.8316 25.7022C68.8316 24.5487 69.1743 23.6544 69.8597 23.0192C70.5618 22.3672 71.64 21.8992 73.0943 21.615L77.683 20.7374C77.683 19.701 77.4406 18.932 76.9558 18.4305C76.471 17.9123 75.7522 17.6532 74.7994 17.6532C73.9469 17.6532 73.2782 17.8454 72.7934 18.2299C72.3086 18.5977 71.9743 19.1493 71.7904 19.8849L69.0573 19.7093C69.308 18.372 69.9266 17.3189 70.9128 16.5499C71.9158 15.781 73.2113 15.3965 74.7994 15.3965C76.6048 15.3965 77.9755 15.8813 78.9116 16.8508C79.8645 17.8037 80.3409 19.1493 80.3409 20.8878V26.0783C80.3409 26.3959 80.391 26.6216 80.4913 26.7553C80.6084 26.8723 80.7922 26.9308 81.043 26.9308H81.5194V29.0371C81.4358 29.0538 81.3021 29.0705 81.1182 29.0873C80.9343 29.104 80.7421 29.1123 80.5415 29.1123C79.9731 29.1123 79.48 29.0204 79.0621 28.8365C78.6609 28.6526 78.36 28.3517 78.1594 27.9338C77.9588 27.4992 77.8585 26.9225 77.8585 26.2037L78.1343 26.329C78.0006 26.9141 77.7081 27.4323 77.2567 27.8837C76.8221 28.335 76.2621 28.6944 75.5767 28.9619C74.9081 29.2126 74.1809 29.338 73.3952 29.338ZM73.8215 27.2317C74.6239 27.2317 75.3092 27.0813 75.8776 26.7804C76.446 26.4628 76.889 26.0281 77.2066 25.4765C77.5242 24.9249 77.683 24.298 77.683 23.5959V22.7434L73.7713 23.4956C72.9689 23.6461 72.4006 23.8884 72.0663 24.2228C71.7486 24.5404 71.5898 24.9499 71.5898 25.4514C71.5898 26.0198 71.7821 26.4628 72.1666 26.7804C72.5677 27.0813 73.1194 27.2317 73.8215 27.2317ZM83.9037 32.7983V30.6168H85.5335C85.9849 30.6168 86.3192 30.5499 86.5365 30.4162C86.7538 30.2825 86.921 30.0568 87.038 29.7392L87.4643 28.6359H86.6368L81.8225 15.6974H84.6308L88.2917 26.1786L91.7771 15.6974H94.6105L89.2947 30.5917C89.0273 31.3607 88.6261 31.9207 88.0911 32.2717C87.5729 32.6228 86.8458 32.7983 85.9096 32.7983H83.9037ZM97.042 29.0371V11.2341H99.7501V19.8096L98.4462 18.8568H109.278L107.975 19.8096V11.2341H110.683V29.0371H107.975V20.3613L109.278 21.3141H98.4462L99.7501 20.3613V29.0371H97.042ZM118.638 29.338C117.301 29.338 116.231 28.895 115.428 28.009C114.643 27.1064 114.25 25.861 114.25 24.2729V15.6974H116.908V23.5959C116.908 24.7995 117.117 25.6855 117.535 26.2538C117.953 26.8222 118.588 27.1064 119.44 27.1064C120.41 27.1064 121.162 26.7971 121.697 26.1786C122.249 25.5434 122.525 24.6574 122.525 23.5207V15.6974H125.182V29.0371H122.7L122.65 25.5517L123.026 25.7022C122.792 26.8723 122.299 27.775 121.547 28.4102C120.794 29.0288 119.825 29.338 118.638 29.338ZM135.269 29.338C134.349 29.338 133.53 29.1374 132.811 28.7362C132.109 28.3183 131.566 27.7499 131.181 27.0311L131.106 29.0371H128.624V11.2341H131.282V17.578C131.633 16.9929 132.151 16.4831 132.836 16.0484C133.538 15.6138 134.349 15.3965 135.269 15.3965C136.422 15.3965 137.425 15.6807 138.277 16.249C139.13 16.8174 139.782 17.6281 140.233 18.6813C140.701 19.7177 140.935 20.9463 140.935 22.3672C140.935 23.7881 140.701 25.0252 140.233 26.0783C139.782 27.1147 139.13 27.9171 138.277 28.4855C137.425 29.0538 136.422 29.338 135.269 29.338ZM134.842 27.0311C135.862 27.0311 136.673 26.6216 137.275 25.8025C137.876 24.9667 138.177 23.8216 138.177 22.3672C138.177 20.9129 137.876 19.7762 137.275 18.9571C136.673 18.1213 135.87 17.7034 134.867 17.7034C134.115 17.7034 133.472 17.8872 132.937 18.255C132.402 18.6228 131.992 19.1577 131.708 19.8598C131.424 20.5452 131.282 21.381 131.282 22.3672C131.282 23.3201 131.424 24.1475 131.708 24.8496C131.992 25.5517 132.402 26.095 132.937 26.4795C133.472 26.8473 134.107 27.0311 134.842 27.0311Z" fill="#07366F"/>
</svg>
