<svg width="1054" height="352" viewBox="0 0 1054 352" fill="none" xmlns="http://www.w3.org/2000/svg">
<path d="M254.107 180.725C234.787 174.566 215.85 167.594 196.4 162.513C144.636 148.997 92.5158 147.433 40.3316 160.49C34.8163 161.877 33.6409 170.26 38.3025 173.517C65.2801 192.249 92.3555 210.867 119.465 229.409C124.32 232.733 125.857 237.073 126.496 242.855C129.592 270.411 133.242 297.902 136.799 325.396C137.097 327.749 138.034 330.098 139.075 332.268C140.795 335.885 143.298 335.905 145.925 333.118C146.92 332.062 147.761 330.844 148.661 329.699C171.683 300.423 194.687 271.138 217.705 241.848C219.41 239.683 218.903 236.498 216.778 234.744C196.145 217.72 171.46 206.532 146.184 196.603C141.999 194.958 143.688 188.786 148.089 189.706C203.514 201.283 254.296 224.646 303.608 251.643C311.088 255.736 318.52 259.91 326.108 263.792C328.996 265.264 333.494 261.533 332.035 258.639C324.953 244.511 318.265 230.142 310.217 216.561C275.819 158.486 232.673 108.08 177.009 69.3345C162.718 59.3857 146.921 51.4636 131.255 43.7266C121.893 39.1015 118.355 43.113 119.012 52.103C120.783 76.3476 123.573 100.525 126.44 124.658C126.645 126.422 130.755 128.541 133.335 129.063C175.188 137.44 213.928 153.168 249.238 177.235C250.838 178.319 252.39 179.481 254.072 180.704C254.083 180.712 254.095 180.719 254.107 180.725Z" fill="url(#paint0_linear_426_22363)" fill-opacity="0.47"/>
<path d="M493.879 180.725C474.558 174.566 455.621 167.594 436.172 162.513C384.407 148.997 332.287 147.433 280.103 160.49C274.588 161.877 273.412 170.26 278.074 173.517C305.051 192.249 332.127 210.867 359.237 229.409C364.091 232.733 365.628 237.073 366.267 242.855C369.364 270.411 373.013 297.902 376.57 325.396C376.868 327.749 377.805 330.098 378.846 332.268C380.567 335.885 383.069 335.905 385.697 333.118C386.691 332.062 387.533 330.844 388.432 329.699C411.455 300.423 434.458 271.138 457.476 241.848C459.181 239.683 458.675 236.498 456.549 234.744C435.916 217.72 411.231 206.532 385.955 196.603C381.77 194.958 383.459 188.786 387.86 189.706C443.285 201.283 494.067 224.646 543.379 251.643C550.859 255.736 558.291 259.91 565.88 263.792C568.767 265.264 573.265 261.533 571.806 258.639C564.724 244.511 558.036 230.142 549.988 216.561C515.59 158.486 472.444 108.08 416.78 69.3345C402.49 59.3857 386.692 51.4636 371.026 43.7266C361.664 39.1015 358.126 43.113 358.783 52.103C360.554 76.3476 363.344 100.525 366.212 124.658C366.416 126.422 370.526 128.541 373.106 129.063C414.959 137.44 453.699 153.168 489.009 177.235C490.609 178.319 492.161 179.481 493.843 180.704C493.854 180.712 493.866 180.719 493.879 180.725Z" fill="url(#paint1_linear_426_22363)" fill-opacity="0.47"/>
<path d="M733.65 180.725C714.33 174.566 695.393 167.594 675.943 162.513C624.178 148.997 572.058 147.433 519.874 160.49C514.359 161.877 513.184 170.26 517.845 173.517C544.823 192.249 571.898 210.867 599.008 229.409C603.863 232.733 605.4 237.073 606.039 242.855C609.135 270.411 612.784 297.902 616.341 325.396C616.64 327.749 617.576 330.098 618.618 332.268C620.338 335.885 622.841 335.905 625.468 333.118C626.463 332.062 627.304 330.844 628.203 329.699C651.226 300.423 674.23 271.138 697.248 241.848C698.952 239.683 698.446 236.498 696.32 234.744C675.688 217.72 651.003 206.532 625.726 196.603C621.541 194.958 623.23 188.786 627.632 189.706C683.057 201.283 733.839 224.646 783.15 251.643C790.631 255.736 798.063 259.91 805.651 263.792C808.539 265.264 813.036 261.533 811.577 258.639C804.496 244.511 797.808 230.142 789.76 216.561C755.362 158.486 712.216 108.08 656.552 69.3345C642.261 59.3857 626.464 51.4636 610.798 43.7266C601.435 39.1015 597.898 43.113 598.555 52.103C600.325 76.3476 603.116 100.525 605.983 124.658C606.187 126.422 610.298 128.541 612.878 129.063C654.731 137.44 693.471 153.168 728.781 177.235C730.38 178.319 731.932 179.481 733.615 180.704C733.626 180.712 733.638 180.719 733.65 180.725Z" fill="url(#paint2_linear_426_22363)" fill-opacity="0.47"/>
<path d="M973.422 180.725C954.101 174.566 935.164 167.594 915.714 162.513C863.95 148.997 811.83 147.433 759.646 160.49C754.131 161.877 752.955 170.26 757.617 173.517C784.594 192.249 811.67 210.867 838.78 229.409C843.634 232.733 845.171 237.073 845.81 242.855C848.907 270.411 852.556 297.902 856.113 325.396C856.411 327.749 857.348 330.098 858.389 332.268C860.11 335.885 862.612 335.905 865.24 333.118C866.234 332.062 867.076 330.844 867.975 329.699C890.998 300.423 914.001 271.138 937.019 241.848C938.724 239.683 938.218 236.498 936.092 234.744C915.459 217.72 890.774 206.532 865.498 196.603C861.313 194.958 863.002 188.786 867.403 189.706C922.828 201.283 973.61 224.646 1022.92 251.643C1030.4 255.736 1037.83 259.91 1045.42 263.792C1048.31 265.264 1052.81 261.533 1051.35 258.639C1044.27 244.511 1037.58 230.142 1029.53 216.561C995.133 158.486 951.987 108.08 896.323 69.3345C882.033 59.3857 866.235 51.4636 850.569 43.7266C841.207 39.1015 837.669 43.113 838.326 52.103C840.097 76.3476 842.887 100.525 845.755 124.658C845.959 126.422 850.069 128.541 852.649 129.063C894.502 137.44 933.242 153.168 968.552 177.235C970.152 178.319 971.704 179.481 973.386 180.704C973.397 180.712 973.409 180.719 973.422 180.725Z" fill="url(#paint3_linear_426_22363)" fill-opacity="0.47"/>
<defs>
<linearGradient id="paint0_linear_426_22363" x1="284.943" y1="132.035" x2="49.7433" y2="219.558" gradientUnits="userSpaceOnUse">
<stop stop-color="#EEF0F2" stop-opacity="0.4"/>
<stop offset="1" stop-color="#8A8B8C" stop-opacity="0"/>
</linearGradient>
<linearGradient id="paint1_linear_426_22363" x1="524.714" y1="132.035" x2="289.515" y2="219.558" gradientUnits="userSpaceOnUse">
<stop stop-color="#EEF0F2" stop-opacity="0.4"/>
<stop offset="1" stop-color="#8A8B8C" stop-opacity="0"/>
</linearGradient>
<linearGradient id="paint2_linear_426_22363" x1="764.486" y1="132.035" x2="529.286" y2="219.558" gradientUnits="userSpaceOnUse">
<stop stop-color="#EEF0F2" stop-opacity="0.4"/>
<stop offset="1" stop-color="#8A8B8C" stop-opacity="0"/>
</linearGradient>
<linearGradient id="paint3_linear_426_22363" x1="1004.26" y1="132.035" x2="769.058" y2="219.558" gradientUnits="userSpaceOnUse">
<stop stop-color="#EEF0F2" stop-opacity="0.4"/>
<stop offset="1" stop-color="#8A8B8C" stop-opacity="0"/>
</linearGradient>
</defs>
</svg>
